<?xml version="1.0" encoding="UTF-8"?><svg xmlns="http://www.w3.org/2000/svg" viewBox="0 0 271.33 315.77"><defs><style>.d{fill:#fff;}</style></defs><g id="a"/><g id="b"><g id="c"><g><g><path class="d" d="M71.52,95.19v-.06c.04-.09,.07-.15,.09-.18-.03,.09-.09,.24-.09,.24Z"/><path class="d" d="M132.21,105.59c-2.51-4.01-2.01-.34-2.01-.34,.97,6.01,7.72,34.11-6.92,46.34-10.04,8.39-22.69,14.8-37.96-1.2,0,0,.79,5.87-15.42,7.39-1.99,.18-4.94-.64-5.01-.67,0,0-.12-.05-.21-.09-.02-.01,0,0-.16-.07l-.26-.15c-.51-.3-.99-.65-1.42-1.08-1.49-1.52-2.36-3.71-2.94-5.72-.67-2.32-.97-4.75-1.12-7.16-.29-4.78,.07-9.59,.67-14.34,.3-2.39,.65-4.74,1.4-7.04,.85-2.58,1.64-5.13,2.79-7.6l4.28-10.2c2.46-5.88,3.33-7.92,3.6-8.53-.58-21.11,22.03-25.21,22.03-25.21,4.86-3.06,10.78-7.09,17.36-12.19,17.79-13.78-9.8-44.89-9.8-44.89L88.93,.14c-.3-.32-.84-.06-.77,.38l.54,11.42c.61,4.15,1.76,8.39,2.85,12.45l5.55,16.13c4.26,10.52,.13,10.42,.13,10.42,0,0-10.11-28.58-9.96-34.73,0,0-9.86,18.51-10.18,34.01,0,0-1.41,1.27-4.53,4.69-2.6,2.85-6.38,7.22-11.5,13.6-1.89,2.35-3.44,4.75-4.72,7.14-6.38,11.9-6.09,23.68-7.56,28.68-1.75,6.02-24.55,54.37-31.31,68.4-6.77,14.03,0,20.79,0,20.79,0,0,10.02,15.28,13.52,20.04,3.51,4.76,8.02,1.26,13.03,1.45,1.9,.07,3-1.14,3.62-2.9,1.38,4.93,6.9,2.46,6.9,2.46,0,0,9.55,3.61,11.8-11.29,2.26-14.91,20.77-33.06,20.77-33.06,66.14-4.01,45.1-64.63,45.1-64.63ZM20.8,188.73s-1.22-1.91,2.67-4.63c3.5-2.45,5.57,1.1,5.96,1.84h0c-2.56,6.23-8.63,2.79-8.63,2.79Zm38.25-.72s-7.86,8.88-10.7,16.63c-.03-.87-.08-1.69-.12-2.38-.25-4.26,4.31-14,8.82-16.76,4.51-2.75,2,2.51,2,2.51Z"/></g><path class="d" d="M116.94,77.43c-6.3,4.02-17.99,20.79-20.93,20.14,0,0,7.09,7.37-4.16,7.37,0,0-5.36-5.52-16.88,1.85,0,0-.8-7.58,4.34-7.19-.68,.46,19.45-5.48,31.52-20.62l6.36-3.23c.69-.08,.32,1.3-.26,1.67Z"/><path class="d" d="M79.85,315.77s123.22-77.18,61.4-209.62c0,0,64.87,41.38,36.99,165.03,0,0-49.66,36.99-72.97,44.6h-25.42Z"/><path class="d" d="M180.78,121.66s35.47,57.78,23.31,124.68c0,0,21.88-17.23,29.18-31.42,0,0-6.38-51.71-52.49-93.26Z"/><path class="d" d="M271.33,138.53c-4.56,24.83-24.83,60.04-24.83,60.04-24.83-84.63-57.87-109.84-57.87-109.84l3.66-6.34s14.52,7.08,43.07,26.16c28.55,19.08,35.98,29.99,35.98,29.99Z"/><path class="d" d="M132.53,164.25s38.62,52.15-52.68,151.52l60.79-32.03,20.17-75.91,4.43-40.51-14.68-45.65-9.31-15.52s11.63,26.57-8.72,58.1Z"/><path class="d" d="M29.49,185.8v.27s-.02-.04-.06-.12h0c.02-.06,.04-.1,.06-.15Z"/><g><rect class="d" x="134.91" y="12.47" width="15.89" height="15.89" transform="translate(231.9 -93.15) rotate(119.96)"/><rect class="d" x="142.79" y="47.59" width="20.2" height="20.2" transform="translate(26.55 161.34) rotate(-60.04)"/><rect class="d" x="129.15" y="44.49" width="41.35" height="3.59" transform="translate(155.65 -110.42) rotate(74.96)"/><path class="d" d="M147.33,30.08s-.21-1.15,.41-2.23c.62-1.08-1.45,.9-1.45,.9l.56,1.4,.47-.07Z"/><path class="d" d="M142.7,29.48s.96,.67,1.28,1.87c.32,1.2,.39-1.66,.39-1.66l-1.39-.59-.28,.38Z"/><path class="d" d="M147.66,45.11s.21,1.15-.41,2.23c-.62,1.08,1.45-.9,1.45-.9l-.56-1.4-.47,.07Z"/><path class="d" d="M152.29,45.71s-.96-.67-1.28-1.87c-.32-1.2-.39,1.66-.39,1.66l1.39,.59,.28-.38Z"/></g><rect class="d" x="183.49" y="61.14" width="8.94" height="8.94" transform="translate(318.03 216.33) rotate(-150.04)"/><g><rect class="d" x="172.18" y="33.88" width="15.89" height="15.89" transform="translate(53.93 176.99) rotate(-60.04)"/><rect class="d" x="166.53" y="7.86" width="12.18" height="12.18" transform="translate(270.91 -128.64) rotate(119.96)"/><rect class="d" x="164.87" y="27.31" width="24.09" height="3.59" transform="translate(194.71 207.5) rotate(-105.04)"/><path class="d" d="M175.65,32.17s.21,1.15-.41,2.23c-.62,1.08,1.45-.9,1.45-.9l-.56-1.4-.47,.07Z"/><path class="d" d="M180.29,32.76s-.96-.67-1.28-1.87-.39,1.66-.39,1.66l1.39,.59,.28-.38Z"/><path class="d" d="M176.38,21.05s-.21-1.15,.41-2.23c.62-1.08-1.45,.9-1.45,.9l.56,1.4,.47-.07Z"/><path class="d" d="M171.75,20.45s.96,.67,1.28,1.87,.39-1.66,.39-1.66l-1.39-.59-.28,.38Z"/><rect class="d" x="204.64" y="52.59" width="15.89" height="15.89" transform="translate(58.64 -98.08) rotate(29.96)"/><rect class="d" x="201.73" y="28.12" width="12.18" height="12.18" transform="translate(370.79 167.64) rotate(-150.04)"/><rect class="d" x="185.42" y="35.19" width="24.09" height="3.59" transform="translate(-2.83 52.5) rotate(-15.04)"/><path class="d" d="M189.6,37.24s-1.15,.21-2.23-.41c-1.08-.62,.9,1.45,.9,1.45l1.4-.56-.07-.47Z"/><path class="d" d="M189.01,41.88s.67-.96,1.87-1.28-1.66-.39-1.66-.39l-.59,1.39,.38,.28Z"/><path class="d" d="M200.73,37.97s1.15-.21,2.23,.41-.9-1.45-.9-1.45l-1.4,.56,.07,.47Z"/><path class="d" d="M201.32,33.34s-.67,.96-1.87,1.28,1.66,.39,1.66,.39l.59-1.39-.38-.28Z"/></g><polyline class="d" points="74.6 56.12 0 11.71 60.81 80.72"/></g></g></g></svg>