<?xml version="1.0" standalone="no"?>
<!DOCTYPE svg PUBLIC "-//W3C//DTD SVG 20010904//EN"
 "http://www.w3.org/TR/2001/REC-SVG-20010904/DTD/svg10.dtd">
<svg version="1.0" xmlns="http://www.w3.org/2000/svg"
 width="1503.000000pt" height="1503.000000pt" viewBox="0 0 1503.000000 1503.000000"
 preserveAspectRatio="xMidYMid meet">

<g transform="translate(0.000000,1503.000000) scale(0.100000,-0.100000)"
fill="#000000" stroke="none">
<path d="M7270 15023 c-2141 -68 -4149 -1049 -5526 -2699 -1467 -1757 -2049
-4076 -1588 -6329 395 -1925 1545 -3629 3195 -4733 1002 -669 2165 -1089 3374
-1216 542 -57 1168 -52 1708 15 1642 202 3149 930 4331 2089 555 545 996 1128
1358 1795 513 944 818 2012 888 3110 13 205 13 715 0 920 -56 872 -254 1708
-595 2505 -315 738 -769 1445 -1321 2060 -144 160 -484 496 -642 633 -1436
1252 -3281 1911 -5182 1850z m660 -343 c829 -51 1584 -224 2350 -541 349 -144
879 -427 1197 -640 846 -566 1556 -1291 2092 -2134 924 -1452 1292 -3171 1045
-4885 -314 -2188 -1633 -4113 -3571 -5213 -1378 -783 -2989 -1082 -4583 -851
-2016 293 -3828 1453 -4956 3174 -280 428 -547 954 -717 1415 -205 554 -342
1132 -406 1710 -31 282 -41 474 -41 801 0 328 9 506 41 799 269 2471 1830
4644 4096 5705 812 379 1686 602 2593 659 186 12 672 12 860 1z"/>
<path d="M8449 14286 c-83 -29 -130 -91 -155 -202 -18 -81 -17 -225 2 -244 6
-6 76 -23 155 -37 79 -14 145 -27 146 -27 3 -2 -114 -499 -147 -626 -17 -66
-21 -103 -17 -167 10 -167 84 -242 274 -279 95 -18 137 -18 200 1 l51 15 12
73 c32 194 173 822 189 839 3 4 42 -2 86 -13 148 -37 200 -14 260 116 37 80
78 245 73 294 l-3 34 -350 82 c-192 46 -414 99 -492 119 -149 38 -224 44 -284
22z"/>
<path d="M6395 14266 c-110 -29 -235 -75 -235 -86 0 -5 31 -120 69 -257 39
-136 69 -249 67 -250 -1 -2 -18 20 -36 49 -103 159 -235 290 -349 346 -70 35
-81 37 -165 37 -113 -1 -178 -26 -235 -92 -88 -99 -97 -164 -51 -379 17 -82
58 -282 91 -444 73 -360 88 -413 133 -466 43 -50 117 -91 181 -99 96 -13 244
38 314 107 67 66 66 53 16 272 -25 109 -45 203 -45 209 0 6 12 -6 27 -28 110
-165 278 -305 415 -346 57 -18 87 -21 157 -16 190 11 271 79 271 229 0 145
-198 1032 -252 1131 -14 25 -42 53 -71 71 -68 42 -175 46 -302 12z"/>
<path d="M9792 13907 c-18 -23 -172 -307 -245 -454 -72 -143 -187 -401 -297
-665 -45 -109 -51 -130 -39 -144 36 -43 205 -139 451 -255 297 -140 396 -168
483 -135 79 31 151 141 162 250 9 85 1 102 -49 110 -121 19 -273 72 -373 130
l-44 26 21 48 c11 26 22 49 24 51 2 2 53 -19 113 -47 165 -79 231 -84 294 -25
60 58 106 200 80 247 -5 10 -42 29 -82 42 -73 24 -251 110 -251 120 0 3 9 27
21 54 l21 48 120 -60 c65 -33 144 -68 175 -79 144 -49 255 3 320 150 22 49 52
164 53 198 0 32 -627 314 -825 371 -105 31 -122 33 -133 19z"/>
<path d="M4853 13790 c-75 -16 -282 -113 -346 -164 -18 -14 -18 -18 14 -103
88 -240 372 -916 420 -1000 64 -111 160 -182 247 -183 116 0 332 118 392 215
l20 33 -240 543 c-132 299 -253 559 -268 579 -55 68 -147 99 -239 80z"/>
<path d="M4004 13360 c-109 -16 -218 -88 -271 -178 -85 -144 -83 -384 6 -649
15 -46 26 -83 25 -83 -1 0 -49 27 -106 61 -143 85 -185 105 -287 139 -110 37
-206 40 -305 10 -125 -39 -336 -228 -336 -301 0 -47 670 -974 764 -1057 42
-37 82 -47 134 -32 48 12 150 86 190 138 30 38 62 95 62 109 0 5 -83 117 -184
248 -101 132 -183 241 -182 243 2 1 41 -23 87 -53 101 -67 298 -165 394 -197
53 -17 93 -23 162 -23 91 0 93 1 125 32 27 28 32 41 36 94 3 34 -1 87 -8 118
-9 44 -100 293 -211 579 -5 12 -7 22 -5 22 2 0 90 -111 196 -246 159 -203 200
-249 234 -265 80 -36 135 -19 256 79 73 59 114 103 139 149 10 20 -21 63 -385
530 -218 279 -401 513 -407 519 -17 17 -65 23 -123 14z"/>
<path d="M11153 13041 c-87 -32 -187 -89 -256 -146 -84 -70 -443 -487 -482
-561 -55 -105 -44 -230 30 -327 39 -51 167 -141 223 -157 71 -19 75 -17 146
88 36 53 75 108 86 120 l20 24 84 -68 84 -68 -49 -63 c-33 -43 -56 -87 -70
-135 -21 -69 -21 -72 -4 -126 13 -42 30 -68 70 -107 93 -89 203 -132 291 -113
44 10 51 17 299 321 197 240 264 329 295 392 129 261 75 519 -156 734 -155
145 -281 202 -459 207 -79 3 -111 0 -152 -15z m256 -476 c16 -8 40 -28 55 -45
55 -66 23 -184 -82 -300 l-47 -51 -117 91 c-65 50 -118 94 -118 98 0 15 39 70
88 123 81 89 157 118 221 84z"/>
<path d="M7215 12524 c-22 -2 -96 -9 -165 -14 -477 -41 -1018 -176 -1470 -365
-1593 -668 -2730 -2103 -3015 -3802 -51 -307 -59 -423 -60 -818 0 -389 6 -476
51 -775 106 -697 365 -1377 751 -1969 308 -473 732 -927 1188 -1272 584 -442
1289 -761 2011 -908 532 -109 1098 -129 1644 -60 1919 243 3533 1580 4133
3424 662 2034 -40 4259 -1753 5556 -722 547 -1573 882 -2500 985 -136 15 -713
28 -815 18z m646 -214 c626 -49 1186 -198 1734 -464 493 -239 889 -517 1277
-894 723 -704 1212 -1636 1377 -2623 53 -315 65 -463 65 -814 0 -351 -12 -503
-65 -814 -250 -1497 -1221 -2802 -2594 -3488 -513 -257 -1045 -412 -1647 -480
-114 -13 -238 -17 -488 -17 -360 -1 -521 11 -809 60 -2079 350 -3698 2032
-3965 4119 -50 385 -50 855 0 1240 105 823 425 1606 930 2275 502 666 1172
1192 1939 1522 494 213 1052 347 1590 381 126 8 534 6 656 -3z"/>
<path d="M5578 11658 c-73 -20 -118 -98 -118 -205 0 -40 -3 -51 -13 -47 -24 9
-110 -16 -143 -41 -36 -27 -68 -90 -79 -152 l-7 -43 -48 0 c-58 0 -106 -19
-142 -57 -54 -57 -72 -140 -44 -213 8 -19 22 -56 32 -82 l18 -48 -40 -42
c-151 -159 -276 -388 -332 -608 -24 -94 -26 -123 -26 -285 -1 -316 52 -510
296 -1089 192 -456 221 -552 268 -862 42 -280 71 -365 150 -444 50 -50 86 -68
167 -85 36 -8 66 -15 68 -17 12 -13 -46 -443 -86 -638 -24 -118 -59 -230 -71
-230 -5 0 -40 18 -76 39 -91 54 -160 75 -227 69 -110 -9 -184 -96 -171 -203 3
-29 9 -60 12 -68 3 -10 -7 -24 -32 -40 -78 -54 -95 -128 -49 -219 14 -27 25
-51 25 -53 0 -1 -13 -8 -29 -15 -70 -29 -96 -96 -75 -196 25 -122 148 -321
349 -564 260 -314 473 -495 825 -697 411 -237 807 -379 1325 -478 135 -25 171
-35 173 -49 8 -41 -76 -213 -142 -291 l-26 -30 -22 30 c-46 63 -144 149 -196
172 -68 32 -155 35 -202 7 -105 -61 -87 -219 39 -344 66 -65 124 -105 281
-190 63 -35 156 -91 205 -125 181 -125 276 -159 440 -159 209 1 335 65 335
171 0 15 -11 60 -25 98 -13 39 -25 90 -25 114 0 38 -6 49 -44 87 -24 24 -52
44 -62 44 -11 0 -38 16 -62 35 -54 42 -125 59 -202 46 -30 -5 -56 -8 -58 -6
-1 1 20 45 47 97 36 69 53 116 62 172 15 87 7 81 129 91 41 4 109 13 150 21
l75 14 205 -99 c113 -54 213 -102 224 -105 17 -6 16 -9 -8 -39 -108 -131 -109
-310 -2 -361 120 -57 259 33 296 192 8 33 21 59 36 71 13 10 99 47 192 80 336
124 392 154 440 236 20 35 22 49 17 105 -4 36 -7 102 -8 148 -2 81 -3 85 -35
113 -27 24 -41 29 -84 29 -49 0 -55 3 -88 41 -40 46 -88 62 -147 49 -86 -20
-174 -117 -277 -306 -32 -57 -59 -104 -60 -104 -2 0 -54 24 -116 54 l-112 54
39 25 c21 14 72 41 112 61 128 65 361 221 516 345 104 83 368 351 464 471 144
178 230 324 286 482 l27 76 71 7 c117 11 274 44 392 82 125 40 319 134 329
158 3 9 6 53 6 96 0 44 11 198 24 342 14 144 28 317 32 383 l6 122 44 31 c76
53 126 151 167 326 18 77 21 122 21 315 1 261 -12 355 -75 544 -43 129 -90
216 -156 287 -38 40 -44 54 -53 115 -5 38 -10 74 -10 80 0 6 18 19 41 29 22
10 44 26 50 36 22 42 -5 214 -39 252 -72 79 -211 90 -692 52 -96 -8 -213 -15
-259 -17 l-84 -3 -24 120 c-13 66 -33 176 -44 245 -11 69 -26 128 -32 133 -31
21 -342 -29 -353 -57 -3 -7 13 -119 34 -249 l38 -237 -30 -5 c-65 -11 -237
-35 -251 -35 -8 0 -15 7 -15 16 0 32 -70 224 -118 326 -125 258 -297 503 -708
1008 -448 550 -636 733 -936 912 -450 266 -920 377 -1308 309 -63 -12 -122
-21 -131 -21 -9 0 -22 14 -29 33 -26 67 -76 131 -132 173 -97 71 -213 104
-290 82z m1170 -402 c206 -53 367 -113 557 -208 196 -98 355 -219 551 -419
242 -248 392 -426 615 -729 357 -486 589 -884 624 -1071 l7 -36 -89 -17 c-166
-33 -293 -86 -364 -153 l-27 -24 -25 25 c-54 54 -73 34 -113 -119 -46 -170
-82 -243 -158 -319 -86 -86 -140 -111 -241 -111 -97 0 -161 26 -271 111 -39
30 -78 54 -86 54 -28 0 -40 -28 -54 -127 -20 -132 -29 -161 -64 -215 -36 -55
-81 -90 -155 -124 -168 -77 -335 -45 -471 90 -37 37 -75 66 -85 66 -31 0 -49
-39 -49 -105 0 -75 -22 -163 -56 -220 -35 -60 -141 -157 -206 -189 -241 -117
-493 -33 -524 176 -9 62 -29 90 -62 86 -18 -2 -31 -12 -41 -33 -7 -16 -34 -52
-60 -79 -112 -118 -330 -159 -442 -83 -84 56 -117 149 -159 436 -42 288 -65
365 -268 871 -61 151 -131 337 -157 413 -195 586 -163 974 111 1337 121 159
107 151 395 241 416 131 517 194 606 376 l45 93 52 15 c93 27 169 34 346 30
163 -3 185 -5 318 -39z m3016 -1933 c3 -10 28 -137 56 -283 28 -146 54 -275
57 -287 4 -19 -2 -24 -46 -37 -63 -19 -182 -30 -199 -18 -6 4 -21 48 -32 98
-24 113 -92 505 -88 509 8 8 157 33 200 34 36 1 48 -3 52 -16z m1036 -469 c30
-11 55 -23 55 -29 0 -13 -396 -147 -564 -191 -176 -46 -326 -69 -562 -89 -107
-9 -273 -22 -369 -31 -96 -8 -233 -19 -305 -25 -71 -6 -164 -8 -205 -5 -93 8
-189 26 -195 37 -9 14 52 74 104 103 140 75 543 166 742 166 l49 0 0 -64 c0
-87 6 -91 144 -90 89 1 122 6 169 24 72 27 83 47 70 124 -9 48 -8 56 6 60 9 3
86 10 171 16 85 6 175 12 200 14 25 2 133 3 240 1 158 -2 205 -6 250 -21z m99
-162 c1 -19 -11 -29 -71 -57 -75 -34 -325 -129 -371 -141 -18 -4 -37 0 -59 14
-18 11 -52 26 -76 33 -23 7 -39 16 -35 20 4 4 107 34 228 67 121 33 254 73
295 90 81 32 88 31 89 -26z m-69 -188 c22 -56 17 -59 -69 -56 -68 4 -85 1
-120 -19 -59 -33 -85 -91 -79 -173 9 -105 81 -255 166 -343 l44 -45 -27 -28
c-37 -38 -41 -83 -15 -159 11 -35 19 -65 16 -68 -2 -3 -15 2 -28 10 -12 9 -40
19 -60 22 -21 4 -38 10 -38 14 0 3 13 40 30 81 17 43 29 94 30 120 0 55 -37
138 -75 168 -37 29 -99 45 -146 37 -23 -4 -39 -3 -39 3 0 5 15 41 33 78 29 62
32 78 33 164 l1 94 154 62 c85 34 160 62 167 63 7 1 17 -11 22 -25z m-864 -13
c-4 -6 -53 -41 -110 -79 -99 -67 -105 -69 -192 -80 -192 -25 -451 -34 -632
-22 -170 11 -319 32 -332 47 -11 12 -29 93 -21 97 3 2 35 -1 71 -6 104 -16
329 -14 535 6 207 19 678 54 684 50 1 -2 0 -7 -3 -13z m362 -51 c48 -22 81
-79 82 -141 0 -76 -51 -201 -137 -330 -32 -49 -43 -73 -38 -88 11 -36 51 -26
100 24 77 80 163 98 216 46 25 -26 29 -37 29 -85 0 -70 -25 -136 -95 -255 -64
-109 -74 -138 -51 -147 17 -7 21 -4 107 63 76 58 101 63 139 25 27 -28 30 -36
30 -96 0 -70 -32 -175 -77 -256 -44 -77 -243 -371 -308 -455 -83 -106 -272
-288 -363 -349 -263 -174 -614 -267 -966 -253 -143 5 -254 23 -358 58 -64 21
-91 17 -86 -14 4 -30 52 -59 150 -92 78 -27 95 -29 281 -33 173 -4 199 -6 207
-21 5 -10 16 -59 25 -110 21 -124 28 -135 94 -164 115 -52 279 -84 491 -97 84
-5 155 -11 157 -14 10 -10 -76 -176 -141 -275 -128 -195 -281 -371 -458 -528
-455 -403 -873 -620 -1344 -700 -166 -28 -512 -25 -694 6 -296 50 -613 145
-892 268 -391 172 -847 477 -1038 694 -382 434 -540 687 -475 759 14 16 31 20
81 20 54 0 65 3 78 22 9 12 16 25 16 29 0 4 -25 31 -55 60 -120 116 -99 223
33 169 98 -41 140 5 66 72 -45 40 -64 83 -64 142 0 36 5 48 26 65 47 37 109
23 240 -51 l74 -42 -2 -51 c-3 -44 -1 -50 17 -50 27 0 43 36 110 240 99 299
147 507 164 706 5 59 14 116 20 127 6 12 40 31 81 47 38 15 95 47 127 71 31
24 59 44 62 44 3 -1 24 -29 46 -63 81 -124 191 -173 368 -165 119 6 202 33
295 97 116 79 206 209 219 319 3 28 7 52 9 52 2 0 26 -16 53 -35 70 -51 146
-82 230 -96 255 -42 513 133 562 382 6 32 13 59 14 59 2 0 39 -18 82 -41 220
-113 439 -46 594 183 42 61 119 216 119 238 0 31 20 -7 30 -58 15 -73 24 -88
59 -106 25 -14 29 -22 40 -99 13 -92 64 -312 112 -475 16 -56 33 -122 38 -146
l8 -44 -71 -47 c-88 -58 -298 -161 -431 -210 -168 -63 -459 -125 -583 -125
-57 0 -92 -15 -92 -40 0 -11 8 -24 17 -27 24 -9 299 14 439 37 296 49 520 140
799 325 240 159 437 336 676 605 255 288 374 385 522 425 73 19 135 18 185 -5z
m507 -89 c93 -54 157 -147 206 -300 121 -378 92 -909 -59 -1067 l-27 -29 -5
92 -5 92 -47 48 c-87 90 -98 114 -98 214 0 98 4 103 61 73 35 -18 59 -13 59
13 0 10 -27 58 -60 107 -84 126 -101 193 -54 215 22 10 33 9 66 -9 41 -21 68
-26 68 -12 0 5 -28 32 -62 61 -215 179 -315 449 -193 519 36 21 97 14 150 -17z
m-1790 -127 c123 -4 276 -2 398 5 110 7 201 10 204 7 6 -6 -136 -162 -317
-350 -109 -112 -370 -336 -391 -336 -17 0 -116 363 -154 560 -8 47 -18 96 -21
109 -5 22 -3 23 38 17 24 -3 133 -8 243 -12z m1769 -1049 l59 -56 -6 -182 c-3
-100 -17 -303 -31 -452 -14 -148 -29 -333 -33 -410 l-8 -139 -78 -33 c-204
-86 -412 -136 -636 -154 -214 -17 -473 12 -687 76 l-81 25 -12 77 c-7 43 -15
92 -18 110 -5 31 -4 32 44 38 26 3 81 13 122 21 103 20 98 22 103 -43 4 -49 9
-60 41 -90 33 -29 43 -33 93 -33 31 0 71 7 90 16 46 22 91 75 104 125 11 41 6
70 -24 141 -6 13 4 23 46 44 94 47 231 147 314 229 45 44 83 86 85 92 3 10 14
10 49 -1 51 -15 80 -8 104 26 21 30 20 50 -5 82 -12 15 -19 35 -16 44 2 9 58
99 123 199 65 100 136 209 156 242 20 34 39 61 40 61 2 0 30 -25 62 -55z
m-1529 -2777 c35 -16 31 -31 -14 -62 -49 -34 -146 -147 -173 -202 -40 -79 11
-106 56 -30 14 24 51 67 83 96 61 56 193 126 218 116 10 -3 15 -19 15 -42 0
-29 -4 -37 -22 -42 -52 -13 -198 -95 -235 -131 -36 -35 -58 -84 -46 -103 12
-21 52 -4 95 40 55 57 157 112 206 112 34 0 34 -1 28 -32 -19 -96 -108 -147
-434 -248 -173 -53 -210 -86 -265 -231 -24 -64 -65 -100 -120 -106 -44 -5 -45
-5 -57 31 -19 59 14 149 74 203 39 34 45 64 21 98 -8 11 -99 63 -203 115 -103
52 -186 100 -185 105 1 6 37 23 80 39 98 35 117 32 303 -54 74 -35 153 -65
175 -68 l40 -4 45 93 c77 161 156 268 225 303 36 19 56 20 90 4z m-1563 -442
c-7 -88 -58 -227 -116 -312 -25 -36 -46 -72 -46 -80 0 -27 50 -27 139 0 77 24
194 37 207 23 3 -3 -26 -17 -65 -32 -99 -38 -153 -78 -149 -113 4 -39 32 -39
91 2 91 62 208 92 258 66 17 -10 49 -59 49 -77 0 -4 -44 -8 -97 -8 -85 0 -105
-4 -155 -27 -52 -24 -99 -71 -85 -85 4 -3 41 8 82 26 96 40 150 48 197 28 40
-17 65 -48 74 -93 14 -70 -74 -110 -262 -121 -137 -8 -205 13 -337 102 -54 37
-138 89 -185 117 -270 159 -441 322 -417 398 17 53 92 62 174 21 47 -24 130
-99 162 -145 13 -20 38 -41 57 -47 31 -10 33 -9 85 47 120 131 197 259 197
329 0 21 5 24 43 28 23 2 56 4 72 3 30 -1 30 -2 27 -50z"/>
<path d="M7062 10277 c-51 -16 -118 -81 -139 -135 -26 -69 -25 -191 3 -229 12
-16 32 -29 49 -31 l28 -4 -8 54 c-17 108 -13 161 17 200 36 47 102 73 159 64
23 -4 68 -23 100 -42 67 -42 99 -40 99 6 0 36 -63 92 -128 114 -51 18 -131 19
-180 3z"/>
<path d="M7583 9955 c-130 -40 -223 -142 -223 -243 0 -73 58 -91 162 -51 117
44 226 153 235 233 5 37 2 46 -18 60 -28 19 -97 20 -156 1z"/>
<path d="M5745 9501 c-22 -10 -55 -33 -73 -51 -55 -55 -67 -86 -67 -180 0
-122 28 -178 84 -163 20 5 21 9 14 67 -12 96 -7 165 14 194 32 43 69 65 121
70 52 5 111 -16 162 -58 36 -28 74 -18 65 19 -23 94 -209 153 -320 102z"/>
<path d="M6910 9337 c-90 -31 -152 -69 -219 -136 -71 -71 -112 -129 -157 -226
-44 -90 -40 -108 24 -129 123 -39 350 -54 426 -27 95 33 146 118 166 273 19
152 11 225 -28 254 -27 21 -138 16 -212 -9z m178 -159 c-9 -212 -57 -299 -173
-313 -89 -12 -263 9 -305 35 -51 32 144 287 265 345 57 28 146 53 189 54 l29
1 -5 -122z"/>
<path d="M5955 8927 c-126 -42 -222 -131 -239 -221 -22 -114 77 -134 228 -44
152 90 212 183 159 247 -23 27 -94 35 -148 18z"/>
<path d="M10633 6630 c-54 -32 -66 -76 -38 -130 29 -57 105 -76 159 -41 127
84 9 251 -121 171z"/>
<path d="M10330 6461 c-40 -21 -80 -74 -80 -105 0 -36 35 -88 71 -108 95 -51
209 9 209 109 0 82 -38 122 -115 123 -30 0 -64 -7 -85 -19z"/>
<path d="M10051 6264 c-26 -33 -27 -58 -1 -84 40 -40 120 -12 120 43 0 65 -79
92 -119 41z"/>
<path d="M10513 6190 c-64 -39 -80 -113 -40 -190 52 -105 186 -99 242 11 31
58 12 149 -37 183 -33 23 -125 21 -165 -4z"/>
<path d="M10120 6111 c-83 -45 -106 -112 -61 -184 23 -37 90 -77 130 -77 68 0
141 74 141 143 0 111 -108 172 -210 118z"/>
<path d="M1673 9999 c-230 -73 -326 -350 -192 -552 90 -137 277 -195 434 -136
45 17 76 38 127 89 59 59 69 75 88 139 63 207 -49 412 -255 466 -77 20 -126
18 -202 -6z"/>
<path d="M13187 10010 c-110 -28 -201 -103 -250 -208 -28 -58 -32 -77 -31
-147 1 -104 28 -176 95 -250 141 -153 377 -158 524 -10 145 144 147 359 5 509
-85 90 -228 135 -343 106z"/>
<path d="M1485 7359 c-203 -16 -380 -31 -392 -34 -13 -3 -29 -15 -37 -28 -13
-19 -13 -46 0 -217 8 -107 19 -217 24 -245 25 -123 99 -212 198 -241 129 -38
270 31 303 148 7 24 13 44 14 46 1 1 24 -20 51 -47 38 -38 60 -51 99 -59 109
-23 208 25 261 128 25 48 29 184 11 389 -16 190 -17 192 -106 190 -31 -1 -222
-14 -426 -30z m407 -204 c11 -138 10 -249 -2 -276 -39 -85 -191 -77 -232 12
-15 33 -43 318 -32 329 8 7 138 17 204 16 l55 -1 7 -80z m-398 28 c7 -39 20
-237 18 -299 -1 -103 -54 -154 -159 -154 -51 0 -66 4 -91 25 -16 14 -37 42
-45 62 -14 37 -45 359 -35 369 6 6 170 21 250 23 54 1 57 0 62 -26z"/>
<path d="M13050 7290 c-11 -11 -20 -26 -20 -32 0 -7 -16 -128 -35 -268 -19
-140 -35 -269 -35 -286 0 -58 5 -59 443 -119 438 -59 478 -63 497 -41 13 17
92 574 88 621 -5 56 -98 72 -118 20 -5 -13 -23 -130 -41 -262 -17 -131 -33
-240 -35 -242 -5 -5 -278 31 -286 38 -4 3 2 66 12 140 21 151 17 176 -29 186
-68 15 -82 -7 -101 -160 -6 -49 -13 -104 -16 -121 l-5 -30 -132 18 c-72 10
-132 20 -135 22 -2 2 11 108 28 236 18 127 29 243 26 256 -6 23 -40 44 -72 44
-8 0 -23 -9 -34 -20z"/>
<path d="M1775 6306 c-299 -88 -343 -106 -407 -164 -74 -67 -118 -165 -118
-262 0 -58 32 -185 60 -241 31 -59 106 -137 160 -164 65 -33 152 -47 220 -36
30 5 177 44 325 86 221 63 274 81 293 102 17 19 22 33 17 52 -9 36 -34 61 -60
61 -12 0 -146 -36 -298 -80 -305 -88 -365 -97 -436 -60 -88 44 -145 150 -145
271 0 53 5 74 27 111 45 77 84 95 403 187 159 45 297 90 307 98 25 23 21 69
-8 98 -13 14 -32 25 -42 24 -10 0 -144 -38 -298 -83z"/>
<path d="M12906 6314 c-9 -8 -16 -17 -16 -19 0 -2 -36 -129 -80 -282 -80 -276
-80 -278 -62 -303 16 -21 77 -41 423 -142 222 -64 418 -117 435 -117 17 -1 36
5 42 12 6 7 50 146 97 308 84 292 85 294 66 319 -12 17 -29 26 -54 28 -47 4
-48 1 -127 -273 -34 -121 -66 -224 -71 -229 -10 -11 -279 65 -279 79 0 6 16
65 35 132 19 67 35 131 35 142 0 43 -82 68 -112 34 -8 -10 -25 -54 -37 -98
-12 -44 -29 -103 -37 -131 l-15 -52 -126 38 c-70 20 -128 41 -130 47 -2 6 25
113 62 238 36 125 65 231 65 236 0 5 -9 18 -20 29 -24 24 -72 26 -94 4z"/>
<path d="M12653 5458 c-36 -41 -273 -507 -273 -539 0 -22 8 -34 33 -49 90 -55
767 -400 785 -400 45 0 82 68 58 105 -8 13 -90 62 -183 110 -92 48 -170 89
-171 91 -2 1 26 60 62 131 36 71 66 134 66 141 0 22 -48 62 -73 62 -34 0 -58
-31 -121 -158 l-56 -112 -121 60 -120 61 110 214 c61 117 111 225 111 239 0
27 -41 66 -70 66 -9 0 -26 -10 -37 -22z"/>
<path d="M2016 5116 c-214 -113 -393 -211 -397 -218 -5 -7 -9 -24 -9 -36 0
-37 189 -388 239 -444 114 -128 275 -140 393 -30 58 54 83 124 72 197 l-6 45
43 -25 c123 -70 290 9 319 152 20 94 3 141 -157 441 -49 91 -74 122 -100 122
-4 0 -183 -92 -397 -204z m452 -109 c56 -109 72 -151 72 -182 -1 -69 -54 -115
-132 -115 -69 0 -100 32 -181 188 l-68 131 113 60 c62 33 115 61 118 61 3 0
38 -64 78 -143z m-339 -199 c69 -135 81 -164 81 -207 0 -59 -31 -104 -95 -132
-74 -34 -136 -17 -187 53 -31 41 -164 296 -158 301 8 7 274 146 276 144 1 -1
38 -73 83 -159z"/>
<path d="M12218 4628 c-31 -25 -348 -483 -348 -504 0 -11 6 -27 13 -36 6 -9
170 -128 362 -264 232 -165 360 -249 381 -252 55 -7 97 74 58 113 -9 8 -83 63
-165 121 -82 58 -149 108 -149 110 0 3 36 56 81 119 89 126 95 152 47 188 -45
33 -65 19 -158 -112 -51 -71 -89 -116 -95 -112 -5 5 -53 39 -105 76 -52 37
-97 69 -99 71 -2 2 60 93 138 203 91 129 141 208 141 224 0 16 -10 34 -26 46
-30 24 -53 26 -76 9z"/>
<path d="M2569 4149 c-184 -143 -342 -270 -351 -281 -10 -11 -18 -30 -18 -42
0 -24 228 -321 294 -382 127 -117 280 -121 390 -11 73 73 93 152 61 240 -12
34 -11 38 3 32 93 -36 181 -21 245 41 57 56 71 89 71 164 -1 87 -21 129 -134
275 -146 189 -179 225 -204 225 -15 0 -143 -94 -357 -261z m447 -26 c108 -140
114 -151 114 -199 0 -30 -7 -44 -40 -76 -36 -34 -47 -38 -91 -38 -29 0 -60 7
-74 16 -30 20 -207 242 -203 254 3 9 189 159 198 160 3 0 46 -53 96 -117z
m-301 -253 c146 -187 161 -238 94 -314 -61 -70 -140 -85 -205 -38 -41 30 -229
264 -229 284 0 12 234 202 240 196 2 -2 47 -59 100 -128z"/>
<path d="M11560 3699 c-110 -22 -252 -123 -320 -229 -70 -109 -90 -264 -50
-392 41 -135 154 -262 286 -325 65 -31 88 -37 170 -41 117 -6 199 14 282 68
188 122 277 329 227 525 -26 102 -63 165 -144 246 -132 132 -282 181 -451 148z
m247 -168 c74 -40 150 -116 189 -192 26 -49 29 -63 29 -154 0 -92 -2 -104 -29
-153 -36 -64 -96 -121 -168 -159 -46 -24 -64 -28 -138 -28 -70 1 -95 5 -140
26 -85 39 -163 118 -207 205 -32 66 -37 84 -37 152 -1 118 51 214 150 283 71
48 110 59 204 56 74 -3 93 -7 147 -36z"/>
<path d="M3552 3613 c-25 -22 -548 -629 -570 -661 -11 -17 -13 -30 -6 -48 11
-30 428 -392 461 -401 27 -6 67 25 76 58 7 28 -17 54 -204 215 l-169 146 58
67 c195 222 441 510 456 533 21 32 15 60 -21 88 -32 25 -55 25 -81 3z"/>
<path d="M4283 3002 c-15 -10 -469 -723 -478 -751 -4 -14 3 -29 22 -49 21 -22
365 -246 501 -326 38 -22 101 39 87 84 -3 10 -102 79 -225 157 l-219 138 20
30 c10 17 45 72 76 122 32 51 62 93 67 93 5 0 58 -31 116 -69 131 -84 140 -87
172 -61 63 49 44 82 -97 170 -85 53 -116 77 -112 89 2 9 34 63 71 119 48 75
70 101 79 94 7 -5 99 -64 205 -131 214 -135 232 -141 265 -83 17 29 18 35 4
55 -20 31 -491 327 -519 327 -13 0 -29 -4 -35 -8z"/>
<path d="M10604 2961 c-116 -42 -205 -106 -269 -193 -137 -185 -113 -444 59
-635 149 -166 381 -206 580 -100 82 44 186 143 218 209 56 116 56 211 -1 225
-45 11 -74 -16 -92 -85 -31 -121 -111 -208 -229 -253 -77 -29 -183 -23 -260
15 -145 74 -248 268 -220 416 15 78 44 132 101 185 90 84 201 118 311 96 42
-9 61 -9 82 0 31 14 43 51 28 84 -24 52 -202 73 -308 36z"/>
<path d="M5380 2407 c-30 -15 -46 -61 -32 -92 8 -18 39 -32 151 -70 80 -26
141 -52 141 -59 0 -7 -56 -176 -125 -376 -69 -199 -125 -371 -125 -381 0 -24
47 -59 80 -59 15 0 34 8 42 18 12 14 71 179 255 719 l14 41 132 -44 c165 -55
183 -56 203 -7 29 67 21 71 -367 203 -299 102 -349 117 -369 107z"/>
<path d="M6370 2092 c-20 -16 -26 -55 -79 -447 -31 -237 -55 -438 -53 -448 3
-10 14 -24 26 -32 21 -13 526 -85 597 -85 40 0 54 11 64 51 4 17 0 33 -13 49
-17 22 -39 26 -267 57 -137 18 -250 35 -253 37 -2 3 4 68 14 145 l18 141 26 0
c15 0 76 -7 136 -15 125 -18 151 -15 164 21 14 36 12 49 -7 73 -15 17 -41 23
-148 36 -71 9 -135 18 -141 20 -8 2 -6 42 7 135 9 72 19 133 21 135 2 2 100
-10 218 -26 239 -32 283 -35 297 -16 21 26 23 65 4 88 -16 20 -43 26 -297 60
-153 21 -286 39 -295 39 -9 0 -27 -8 -39 -18z"/>
<path d="M7674 2021 c-15 -7 -68 -122 -208 -447 -103 -242 -190 -453 -193
-470 -10 -60 59 -96 105 -56 11 9 39 62 62 117 23 55 49 106 58 113 11 9 74
12 232 12 l217 0 51 -108 c28 -60 58 -114 67 -122 19 -16 71 -16 91 1 32 26
14 75 -187 504 -111 237 -207 435 -213 442 -16 17 -57 24 -82 14z m129 -412
l84 -186 -166 -5 c-91 -3 -168 -4 -170 -2 -3 3 31 92 74 199 44 107 82 192 87
187 4 -4 45 -91 91 -193z"/>
<path d="M9307 1946 c-76 -28 -114 -89 -105 -171 6 -51 31 -87 79 -114 104
-59 229 17 229 140 0 104 -107 179 -203 145z"/>
</g>
</svg>
