<?xml version="1.0" standalone="no"?>
<!DOCTYPE svg PUBLIC "-//W3C//DTD SVG 20010904//EN"
 "http://www.w3.org/TR/2001/REC-SVG-20010904/DTD/svg10.dtd">
<svg version="1.0" xmlns="http://www.w3.org/2000/svg"
 width="172.000000pt" height="87.000000pt" viewBox="0 0 172.000000 87.000000"
 preserveAspectRatio="xMidYMid meet">

<g transform="translate(0.000000,87.000000) scale(0.100000,-0.100000)"
fill="#000000" stroke="none">
<path d="M0 435 l0 -435 860 0 860 0 0 435 0 435 -860 0 -860 0 0 -435z m848
212 c12 -13 19 -27 15 -30 -7 -8 -53 31 -53 45 0 15 16 8 38 -15z m432 15 c0
-14 -46 -53 -53 -45 -4 3 3 17 15 30 22 23 38 30 38 15z m-892 -131 c43 -30
60 -87 41 -137 -23 -59 -54 -76 -146 -78 l-78 -1 -3 109 c-1 61 0 116 3 124 9
24 144 11 183 -17z m362 0 c37 -26 51 -60 46 -111 -6 -63 -48 -100 -115 -100
-59 0 -94 24 -111 76 -37 111 84 202 180 135z m283 -84 c-7 -12 -103 83 -103
102 0 9 23 -8 55 -39 30 -29 52 -58 48 -63z m127 95 c0 -14 -99 -106 -107 -99
-4 4 15 30 42 57 47 48 65 59 65 42z m308 -107 c28 -58 52 -107 52 -110 0 -3
-6 -5 -13 -5 -7 0 -30 36 -51 80 -21 44 -42 82 -47 85 -4 3 -27 -33 -49 -80
-23 -47 -48 -85 -56 -85 -10 0 3 35 41 110 30 61 59 110 63 110 4 0 31 -47 60
-105z m-474 -66 c-27 -27 -55 -49 -63 -49 -9 0 8 23 39 55 29 30 58 52 63 48
5 -3 -13 -27 -39 -54z m126 6 c30 -30 48 -55 40 -55 -15 0 -110 88 -110 102 0
18 18 5 70 -47z m-274 -153 c-14 -14 -29 -23 -32 -19 -10 10 37 58 48 50 6 -3
-2 -17 -16 -31z m431 -18 c-10 -10 -58 37 -50 48 3 6 17 -2 31 -16 14 -14 23
-29 19 -32z"/>
<path d="M222 438 l3 -93 62 -3 c56 -3 65 0 93 25 45 40 45 96 1 135 -27 25
-39 28 -97 28 l-65 0 3 -92z"/>
<path d="M621 504 c-26 -21 -31 -33 -31 -69 0 -36 5 -48 31 -69 33 -28 64 -32
104 -14 27 12 55 54 55 82 0 29 -24 68 -51 82 -41 21 -74 17 -108 -12z"/>
</g>
</svg>
