<?xml version="1.0" encoding="utf-8"?>
<!-- Generator: Adobe Illustrator 16.0.0, SVG Export Plug-In . SVG Version: 6.00 Build 0)  -->
<!DOCTYPE svg PUBLIC "-//W3C//DTD SVG 1.1//EN" "http://www.w3.org/Graphics/SVG/1.1/DTD/svg11.dtd">
<svg version="1.1" id="Ebene-1" xmlns="http://www.w3.org/2000/svg" xmlns:xlink="http://www.w3.org/1999/xlink" x="0px" y="0px"
	 width="346.712px" height="70.094px" viewBox="0 0 346.712 70.094" enable-background="new 0 0 346.712 70.094"
	 xml:space="preserve">
<g>
	<g>
		<path fill="#003F62" d="M34.992,35.061"/>
	</g>
</g>
<g>
	<path fill-rule="evenodd" clip-rule="evenodd" fill="#003F62" d="M121.696,44.543c0-3.791-1.023-6.92-3.31-9.087
		c-1.807-1.686-4.273-2.769-8.185-3.31l-5.056-0.722c-1.746-0.242-3.13-0.903-3.973-1.686c-0.903-0.843-1.264-1.986-1.264-3.07
		c0-2.949,2.166-5.417,6.62-5.417c2.829,0,6.079,0.361,8.787,2.949l5.296-5.235c-3.671-3.551-7.944-4.996-13.842-4.996
		c-9.268,0-14.926,5.356-14.926,13c0,3.611,1.023,6.379,3.07,8.426c1.926,1.866,4.634,3.009,8.305,3.551l5.177,0.722
		c1.985,0.302,2.949,0.722,3.791,1.504c0.903,0.843,1.324,2.107,1.324,3.612c0,3.43-2.647,5.296-7.583,5.296
		c-3.973,0-7.643-0.902-10.353-3.61l-5.416,5.416c4.213,4.273,9.148,5.657,15.648,5.657
		C114.774,57.544,121.696,52.85,121.696,44.543z"/>
</g>
<g>
	<path fill-rule="evenodd" clip-rule="evenodd" fill="#003F62" d="M143.644,57.183v-6.62h-2.83c-1.865,0-2.708-1.023-2.708-2.828
		V32.688h5.538V26.73h-5.538v-9.269h-7.824v9.269h-3.311v5.958h3.311v15.527c0,4.454,2.708,8.968,9.087,8.968H143.644z"/>
</g>
<g>
	<path fill-rule="evenodd" clip-rule="evenodd" fill="#003F62" d="M177.501,43.943v-3.491c0-8.606-4.935-14.985-13.662-14.985
		c-8.125,0-13.662,5.777-13.662,16.009c0,12.698,7.102,16.069,14.504,16.069c5.658,0,8.728-1.745,11.917-4.936l-4.754-4.634
		c-1.987,1.986-3.672,2.948-7.102,2.948c-4.393,0-6.861-2.948-6.861-6.98H177.501z M169.797,38.585H157.88
		c0.06-1.384,0.241-2.226,0.722-3.37c0.843-1.865,2.588-3.25,5.236-3.25c2.647,0,4.394,1.385,5.235,3.25
		C169.556,36.36,169.736,37.202,169.797,38.585z"/>
</g>
<g>
	<path fill-rule="evenodd" clip-rule="evenodd" fill="#003F62" d="M193.19,20.471v-6.38h-8.005v6.38H193.19z M193.13,57.183V25.827
		h-7.823v31.356H193.13z"/>
</g>
<g>
	<path fill-rule="evenodd" clip-rule="evenodd" fill="#003F62" d="M229.109,57.183V37.142c0-3.431-0.662-6.38-3.189-8.908
		c-1.746-1.745-4.272-2.768-7.403-2.768c-2.889,0-5.777,1.083-7.824,3.249v-2.888h-7.644v31.356h7.825V38.225
		c0-4.273,2.768-5.718,5.235-5.718s5.177,1.444,5.177,5.718v18.958H229.109z"/>
</g>
<g>
	<path fill-rule="evenodd" clip-rule="evenodd" fill="#003F62" d="M264.366,41.475c0-4.694-0.061-10.05-3.189-13.18
		c-1.745-1.746-4.574-2.829-7.645-2.829c-3.189,0-5.536,0.842-7.582,3.129V14.332h-7.824v42.852h7.584v-2.948
		c2.166,2.406,4.514,3.31,7.822,3.31c3.07,0,5.899-1.083,7.645-2.829C264.306,51.585,264.366,46.169,264.366,41.475z
		 M256.542,41.475c0,5.116-0.602,9.028-5.296,9.028s-5.296-3.912-5.296-9.028c0-5.115,0.602-8.968,5.296-8.968
		S256.542,36.36,256.542,41.475z"/>
</g>
<g>
	<path fill-rule="evenodd" clip-rule="evenodd" fill="#003F62" d="M298.173,43.943v-3.491c0-8.606-4.936-14.985-13.662-14.985
		c-8.125,0-13.662,5.777-13.662,16.009c0,12.698,7.101,16.069,14.504,16.069c5.658,0,8.727-1.745,11.916-4.936l-4.754-4.634
		c-1.986,1.986-3.672,2.948-7.102,2.948c-4.394,0-6.861-2.948-6.861-6.98H298.173z M290.469,38.585h-11.917
		c0.06-1.384,0.241-2.226,0.722-3.37c0.844-1.865,2.588-3.25,5.237-3.25c2.647,0,4.393,1.385,5.235,3.25
		C290.228,36.36,290.408,37.202,290.469,38.585z"/>
</g>
<g>
	<path fill-rule="evenodd" clip-rule="evenodd" fill="#003F62" d="M313.261,20.471v-6.38h-8.005v6.38H313.261z M313.2,57.183V25.827
		h-7.824v31.356H313.2z"/>
</g>
<g>
	<path fill-rule="evenodd" clip-rule="evenodd" fill="#003F62" d="M346.712,47.313c0-5.297-3.13-8.606-9.329-9.208l-4.935-0.481
		c-2.768-0.241-3.25-1.564-3.25-2.708c0-1.565,1.324-3.009,4.453-3.009c2.709,0,5.478,0.481,7.283,2.107l4.814-4.875
		c-3.009-2.829-7.102-3.671-11.977-3.671c-6.38,0-12.098,3.491-12.098,9.99c0,5.778,3.49,8.245,9.148,8.787l4.936,0.481
		c2.467,0.24,3.31,1.324,3.31,2.89c0,2.347-2.829,3.25-5.536,3.25c-2.408,0-5.779-0.361-8.367-2.95l-5.115,5.116
		c3.973,3.972,8.426,4.514,13.361,4.514C340.813,57.544,346.712,54.235,346.712,47.313z"/>
</g>
<g>
	<g>
		<g>
			<path fill="#003F62" d="M70.092,70.094H0V0h70.092V70.094z M4.438,65.657h61.217V4.438H4.438V65.657z"/>
		</g>
	</g>
	<g>
		<path fill-rule="evenodd" clip-rule="evenodd" fill="#003F62" d="M34.745,29.861c0-2.858-1.629-5.085-5.384-5.451l-2.759-0.266
			c-1.229-0.133-1.163-0.797-1.163-0.997c0-0.398,0.432-1.03,1.761-1.03c1.396,0,2.892,0.166,3.789,1.063l3.356-3.357
			c-1.761-1.762-4.121-2.193-7.045-2.193c-3.556,0-7.112,1.961-7.112,5.916c0,3.49,2.094,4.886,5.185,5.185l2.758,0.266
			c1.063,0.1,1.296,0.631,1.296,1.13c0,0.931-1.529,1.163-2.327,1.163c-0.931,0-2.858,0-4.354-1.495l-3.523,3.522
			c2.459,2.46,5.085,2.593,7.777,2.593C31.156,35.91,34.745,34.082,34.745,29.861z M48.993,39.039h-5.75l-3.509,9.271l-3.09-9.271
			h-4.879l-3.09,9.271l-3.509-9.271h-5.75l6.666,17.88h4.899l3.224-9.804l3.224,9.804h4.899L48.993,39.039z M48.222,35.71v-4.587
			h-1.728c-0.731,0-1.096-0.398-1.096-1.097v-7.312h2.824v-4.187h-2.824v-4.279l-4.944,0.004v4.275h-2.687v4.187h2.601v7.711
			c0,2.459,1.562,5.381,5.129,5.285H48.222z M9.247,9.612h51.195v51.196H9.247V9.612z"/>
	</g>
</g>
</svg>
